<mxfile host="app.diagrams.net" modified="2023-12-04T19:50:48.821Z" agent="Mozilla/5.0 (Windows NT 10.0; Win64; x64) AppleWebKit/537.36 (KHTML, like Gecko) Chrome/118.0.5993.2470 YaBrowser/23.11.0.2470 Yowser/2.5 Safari/537.36" etag="n2QlBPdXZYHa-f_QY_T9" version="21.6.9" type="device">
  <diagram id="C5RBs43oDa-KdzZeNtuy" name="Page-1">
    <mxGraphModel dx="1386" dy="825" grid="1" gridSize="10" guides="1" tooltips="1" connect="1" arrows="1" fold="1" page="1" pageScale="1" pageWidth="827" pageHeight="1169" math="0" shadow="0">
      <root>
        <mxCell id="WIyWlLk6GJQsqaUBKTNV-0" />
        <mxCell id="WIyWlLk6GJQsqaUBKTNV-1" parent="WIyWlLk6GJQsqaUBKTNV-0" />
        <mxCell id="bxq_5iotaH8TQZKL32yZ-12" value="" style="edgeStyle=orthogonalEdgeStyle;rounded=0;orthogonalLoop=1;jettySize=auto;html=1;" edge="1" parent="WIyWlLk6GJQsqaUBKTNV-1" source="WIyWlLk6GJQsqaUBKTNV-3" target="bxq_5iotaH8TQZKL32yZ-0">
          <mxGeometry relative="1" as="geometry" />
        </mxCell>
        <mxCell id="WIyWlLk6GJQsqaUBKTNV-3" value="Начало" style="rounded=1;whiteSpace=wrap;html=1;fontSize=12;glass=0;strokeWidth=1;shadow=0;" parent="WIyWlLk6GJQsqaUBKTNV-1" vertex="1">
          <mxGeometry x="160" y="80" width="120" height="40" as="geometry" />
        </mxCell>
        <mxCell id="bxq_5iotaH8TQZKL32yZ-2" value="" style="edgeStyle=orthogonalEdgeStyle;rounded=0;orthogonalLoop=1;jettySize=auto;html=1;entryX=0.5;entryY=0;entryDx=0;entryDy=0;" edge="1" parent="WIyWlLk6GJQsqaUBKTNV-1" source="bxq_5iotaH8TQZKL32yZ-0" target="bxq_5iotaH8TQZKL32yZ-1">
          <mxGeometry relative="1" as="geometry">
            <mxPoint x="220" y="290" as="targetPoint" />
          </mxGeometry>
        </mxCell>
        <mxCell id="bxq_5iotaH8TQZKL32yZ-0" value="Ввод строки" style="rounded=0;whiteSpace=wrap;html=1;" vertex="1" parent="WIyWlLk6GJQsqaUBKTNV-1">
          <mxGeometry x="160" y="160" width="120" height="60" as="geometry" />
        </mxCell>
        <mxCell id="bxq_5iotaH8TQZKL32yZ-4" value="" style="edgeStyle=orthogonalEdgeStyle;rounded=0;orthogonalLoop=1;jettySize=auto;html=1;" edge="1" parent="WIyWlLk6GJQsqaUBKTNV-1" source="bxq_5iotaH8TQZKL32yZ-1" target="bxq_5iotaH8TQZKL32yZ-3">
          <mxGeometry relative="1" as="geometry" />
        </mxCell>
        <mxCell id="bxq_5iotaH8TQZKL32yZ-1" value="Определение разделителей для ввода (&quot;,&quot; или &quot; &quot;)" style="whiteSpace=wrap;html=1;rounded=0;" vertex="1" parent="WIyWlLk6GJQsqaUBKTNV-1">
          <mxGeometry x="160" y="270" width="120" height="60" as="geometry" />
        </mxCell>
        <mxCell id="bxq_5iotaH8TQZKL32yZ-6" value="" style="edgeStyle=orthogonalEdgeStyle;rounded=0;orthogonalLoop=1;jettySize=auto;html=1;" edge="1" parent="WIyWlLk6GJQsqaUBKTNV-1" source="bxq_5iotaH8TQZKL32yZ-3" target="bxq_5iotaH8TQZKL32yZ-5">
          <mxGeometry relative="1" as="geometry" />
        </mxCell>
        <mxCell id="bxq_5iotaH8TQZKL32yZ-3" value="Разбитие строки на массив" style="whiteSpace=wrap;html=1;rounded=0;" vertex="1" parent="WIyWlLk6GJQsqaUBKTNV-1">
          <mxGeometry x="160" y="370" width="120" height="60" as="geometry" />
        </mxCell>
        <mxCell id="bxq_5iotaH8TQZKL32yZ-8" value="" style="edgeStyle=orthogonalEdgeStyle;rounded=0;orthogonalLoop=1;jettySize=auto;html=1;" edge="1" parent="WIyWlLk6GJQsqaUBKTNV-1" source="bxq_5iotaH8TQZKL32yZ-5" target="bxq_5iotaH8TQZKL32yZ-7">
          <mxGeometry relative="1" as="geometry" />
        </mxCell>
        <mxCell id="bxq_5iotaH8TQZKL32yZ-5" value="Выбираем из массива элементы длинна, которых &amp;lt;= 3" style="whiteSpace=wrap;html=1;rounded=0;" vertex="1" parent="WIyWlLk6GJQsqaUBKTNV-1">
          <mxGeometry x="160" y="470" width="120" height="60" as="geometry" />
        </mxCell>
        <mxCell id="bxq_5iotaH8TQZKL32yZ-7" value="Преобразуем массив в строку" style="whiteSpace=wrap;html=1;rounded=0;" vertex="1" parent="WIyWlLk6GJQsqaUBKTNV-1">
          <mxGeometry x="160" y="570" width="120" height="60" as="geometry" />
        </mxCell>
        <mxCell id="bxq_5iotaH8TQZKL32yZ-15" value="" style="edgeStyle=orthogonalEdgeStyle;rounded=0;orthogonalLoop=1;jettySize=auto;html=1;" edge="1" parent="WIyWlLk6GJQsqaUBKTNV-1" source="bxq_5iotaH8TQZKL32yZ-7" target="bxq_5iotaH8TQZKL32yZ-13">
          <mxGeometry relative="1" as="geometry">
            <mxPoint x="220" y="630" as="sourcePoint" />
            <mxPoint x="220" y="870" as="targetPoint" />
          </mxGeometry>
        </mxCell>
        <mxCell id="bxq_5iotaH8TQZKL32yZ-17" value="" style="edgeStyle=orthogonalEdgeStyle;rounded=0;orthogonalLoop=1;jettySize=auto;html=1;" edge="1" parent="WIyWlLk6GJQsqaUBKTNV-1" source="bxq_5iotaH8TQZKL32yZ-13" target="bxq_5iotaH8TQZKL32yZ-16">
          <mxGeometry relative="1" as="geometry" />
        </mxCell>
        <mxCell id="bxq_5iotaH8TQZKL32yZ-13" value="Вывод результата" style="shape=document;whiteSpace=wrap;html=1;boundedLbl=1;" vertex="1" parent="WIyWlLk6GJQsqaUBKTNV-1">
          <mxGeometry x="160" y="670" width="120" height="80" as="geometry" />
        </mxCell>
        <mxCell id="bxq_5iotaH8TQZKL32yZ-16" value="Конец" style="rounded=1;whiteSpace=wrap;html=1;" vertex="1" parent="WIyWlLk6GJQsqaUBKTNV-1">
          <mxGeometry x="160" y="790" width="120" height="60" as="geometry" />
        </mxCell>
      </root>
    </mxGraphModel>
  </diagram>
</mxfile>
